<?xml version="1.0" standalone="no"?><!DOCTYPE svg PUBLIC "-//W3C//DTD SVG 1.1//EN" "http://www.w3.org/Graphics/SVG/1.1/DTD/svg11.dtd"><svg t="1640220747438" class="icon" viewBox="0 0 1024 1024" version="1.1" xmlns="http://www.w3.org/2000/svg" p-id="3458" xmlns:xlink="http://www.w3.org/1999/xlink" width="200" height="200"><defs><style type="text/css"></style></defs><path d="M853.344 341.344C853.344 294.4 814.944 256 768 256s-85.344 38.4-85.344 85.344 38.4 85.344 85.344 85.344 85.344-38.4 85.344-85.344z" p-id="3459" fill="#ffffff"></path><path d="M0 85.344v853.344h512v-85.344H85.344V742.4l256-256L512 657.056l59.744-59.744-230.4-230.4-256 256V170.656h853.344v256L1024.032 512V85.344z" p-id="3460" fill="#ffffff"></path><path d="M951.456 755.2l59.744-59.744-200.544-200.544-200.544 200.544 59.744 59.744L768 657.056v196.256h85.344v-196.256zM597.344 938.656h85.344V1024h-85.344v-85.344zM768 938.656h85.344V1024H768v-85.344zM938.656 938.656H1024V1024h-85.344v-85.344z" p-id="3461" fill="#ffffff"></path></svg>